<mxfile host="Electron" modified="2023-11-28T21:10:28.751Z" agent="Mozilla/5.0 (X11; Linux x86_64) AppleWebKit/537.36 (KHTML, like Gecko) draw.io/22.1.2 Chrome/114.0.5735.289 Electron/25.9.4 Safari/537.36" etag="zdlYlN8ubKSd6iEVWgnD" version="22.1.2" type="device">
  <diagram name="Page-1" id="XlKpS0IIzqq14VQge9fn">
    <mxGraphModel dx="1364" dy="843" grid="0" gridSize="10" guides="1" tooltips="1" connect="1" arrows="1" fold="1" page="0" pageScale="1" pageWidth="850" pageHeight="1100" math="0" shadow="0">
      <root>
        <mxCell id="0" />
        <mxCell id="1" parent="0" />
        <mxCell id="PU9OU6t91aehw3rzuChp-1" value="Начало" style="strokeWidth=1;html=1;shape=mxgraph.flowchart.terminator;whiteSpace=wrap;rotation=0;" parent="1" vertex="1">
          <mxGeometry x="160" y="110" width="160" height="40" as="geometry" />
        </mxCell>
        <mxCell id="PU9OU6t91aehw3rzuChp-2" value="Конец" style="strokeWidth=1;html=1;shape=mxgraph.flowchart.terminator;whiteSpace=wrap;rotation=0;" parent="1" vertex="1">
          <mxGeometry x="160" y="530" width="160" height="40" as="geometry" />
        </mxCell>
        <mxCell id="PU9OU6t91aehw3rzuChp-3" value="" style="strokeWidth=1;html=1;shape=mxgraph.flowchart.annotation_2;align=left;labelPosition=right;pointerEvents=1;rotation=0;" parent="1" vertex="1">
          <mxGeometry x="361" y="79" width="50" height="102" as="geometry" />
        </mxCell>
        <mxCell id="PU9OU6t91aehw3rzuChp-4" value="" style="endArrow=none;dashed=1;html=1;rounded=0;entryX=1;entryY=0.5;entryDx=0;entryDy=0;entryPerimeter=0;exitX=0;exitY=0.5;exitDx=0;exitDy=0;exitPerimeter=0;" parent="1" source="PU9OU6t91aehw3rzuChp-3" target="PU9OU6t91aehw3rzuChp-1" edge="1">
          <mxGeometry width="50" height="50" relative="1" as="geometry">
            <mxPoint x="400" y="360" as="sourcePoint" />
            <mxPoint x="450" y="310" as="targetPoint" />
          </mxGeometry>
        </mxCell>
        <mxCell id="PU9OU6t91aehw3rzuChp-5" value="root = nullptr&lt;br&gt;result.size(arr.size())" style="rounded=0;whiteSpace=wrap;html=1;rotation=0;" parent="1" vertex="1">
          <mxGeometry x="160" y="170" width="160" height="40" as="geometry" />
        </mxCell>
        <mxCell id="PU9OU6t91aehw3rzuChp-8" value="root = insert(root, data)" style="rounded=0;whiteSpace=wrap;html=1;rotation=0;" parent="1" vertex="1">
          <mxGeometry x="160" y="290" width="160" height="40" as="geometry" />
        </mxCell>
        <mxCell id="PU9OU6t91aehw3rzuChp-9" value="" style="endArrow=classic;html=1;rounded=0;entryX=0.5;entryY=0;entryDx=0;entryDy=0;exitX=0.5;exitY=1;exitDx=0;exitDy=0;exitPerimeter=0;" parent="1" source="PU9OU6t91aehw3rzuChp-1" target="PU9OU6t91aehw3rzuChp-5" edge="1">
          <mxGeometry width="50" height="50" relative="1" as="geometry">
            <mxPoint x="400" y="360" as="sourcePoint" />
            <mxPoint x="450" y="310" as="targetPoint" />
          </mxGeometry>
        </mxCell>
        <mxCell id="PU9OU6t91aehw3rzuChp-10" value="" style="endArrow=classic;html=1;rounded=0;entryX=0.5;entryY=0;entryDx=0;entryDy=0;entryPerimeter=0;exitX=0.5;exitY=1;exitDx=0;exitDy=0;" parent="1" source="PU9OU6t91aehw3rzuChp-5" edge="1">
          <mxGeometry width="50" height="50" relative="1" as="geometry">
            <mxPoint x="400" y="360" as="sourcePoint" />
            <mxPoint x="240" y="230" as="targetPoint" />
          </mxGeometry>
        </mxCell>
        <mxCell id="PU9OU6t91aehw3rzuChp-11" value="" style="endArrow=classic;html=1;rounded=0;entryX=0.5;entryY=0;entryDx=0;entryDy=0;exitX=0.5;exitY=1;exitDx=0;exitDy=0;exitPerimeter=0;" parent="1" target="PU9OU6t91aehw3rzuChp-8" edge="1">
          <mxGeometry width="50" height="50" relative="1" as="geometry">
            <mxPoint x="240" y="270" as="sourcePoint" />
            <mxPoint x="450" y="310" as="targetPoint" />
          </mxGeometry>
        </mxCell>
        <mxCell id="PU9OU6t91aehw3rzuChp-12" value="" style="endArrow=classic;html=1;rounded=0;entryX=0.5;entryY=1;entryDx=0;entryDy=0;entryPerimeter=0;exitX=0.5;exitY=1;exitDx=0;exitDy=0;" parent="1" source="PU9OU6t91aehw3rzuChp-8" edge="1">
          <mxGeometry width="50" height="50" relative="1" as="geometry">
            <mxPoint x="400" y="360" as="sourcePoint" />
            <mxPoint x="240" y="350" as="targetPoint" />
          </mxGeometry>
        </mxCell>
        <mxCell id="PU9OU6t91aehw3rzuChp-13" value="inorder_traversal(root, result)" style="shape=process;whiteSpace=wrap;html=1;backgroundOutline=1;rotation=0;" parent="1" vertex="1">
          <mxGeometry x="160" y="410" width="160" height="40" as="geometry" />
        </mxCell>
        <mxCell id="PU9OU6t91aehw3rzuChp-14" value="" style="endArrow=classic;html=1;rounded=0;entryX=0.5;entryY=0;entryDx=0;entryDy=0;exitX=0.5;exitY=0;exitDx=0;exitDy=0;exitPerimeter=0;" parent="1" target="PU9OU6t91aehw3rzuChp-13" edge="1">
          <mxGeometry width="50" height="50" relative="1" as="geometry">
            <mxPoint x="240" y="390" as="sourcePoint" />
            <mxPoint x="450" y="310" as="targetPoint" />
          </mxGeometry>
        </mxCell>
        <mxCell id="PU9OU6t91aehw3rzuChp-15" value="Вернуть result" style="rounded=0;whiteSpace=wrap;html=1;rotation=0;" parent="1" vertex="1">
          <mxGeometry x="160" y="470" width="160" height="40" as="geometry" />
        </mxCell>
        <mxCell id="PU9OU6t91aehw3rzuChp-16" value="" style="endArrow=classic;html=1;rounded=0;entryX=0.5;entryY=0;entryDx=0;entryDy=0;entryPerimeter=0;exitX=0.5;exitY=1;exitDx=0;exitDy=0;" parent="1" source="PU9OU6t91aehw3rzuChp-15" target="PU9OU6t91aehw3rzuChp-2" edge="1">
          <mxGeometry width="50" height="50" relative="1" as="geometry">
            <mxPoint x="400" y="360" as="sourcePoint" />
            <mxPoint x="450" y="310" as="targetPoint" />
          </mxGeometry>
        </mxCell>
        <mxCell id="PU9OU6t91aehw3rzuChp-17" value="" style="endArrow=classic;html=1;rounded=0;entryX=0.5;entryY=0;entryDx=0;entryDy=0;exitX=0.5;exitY=1;exitDx=0;exitDy=0;" parent="1" source="PU9OU6t91aehw3rzuChp-13" target="PU9OU6t91aehw3rzuChp-15" edge="1">
          <mxGeometry width="50" height="50" relative="1" as="geometry">
            <mxPoint x="400" y="360" as="sourcePoint" />
            <mxPoint x="450" y="310" as="targetPoint" />
          </mxGeometry>
        </mxCell>
        <mxCell id="PU9OU6t91aehw3rzuChp-18" value="Сортировка бинарным деревом" style="text;html=1;strokeColor=none;fillColor=none;align=center;verticalAlign=middle;whiteSpace=wrap;rounded=0;" parent="1" vertex="1">
          <mxGeometry x="413" y="87" width="60" height="30" as="geometry" />
        </mxCell>
        <mxCell id="PU9OU6t91aehw3rzuChp-19" value="Вход: Массив Arr&lt;br&gt;Выход: Отсортированный массив result" style="text;html=1;strokeColor=none;fillColor=none;align=center;verticalAlign=middle;whiteSpace=wrap;rounded=0;" parent="1" vertex="1">
          <mxGeometry x="421" y="136" width="60" height="30" as="geometry" />
        </mxCell>
        <mxCell id="F-8TCxod3uAgA_P0ZbMi-1" value="Цикл по data из arr" style="shape=loopLimit;whiteSpace=wrap;html=1;rotation=0;" parent="1" vertex="1">
          <mxGeometry x="160" y="230" width="160" height="40" as="geometry" />
        </mxCell>
        <mxCell id="F-8TCxod3uAgA_P0ZbMi-2" value="Цикл по data из arr" style="shape=loopLimit;whiteSpace=wrap;html=1;rotation=0;direction=west;" parent="1" vertex="1">
          <mxGeometry x="160" y="350" width="160" height="40" as="geometry" />
        </mxCell>
      </root>
    </mxGraphModel>
  </diagram>
</mxfile>
